# xmcd CD database file
#
# Track frame offsets:
#	150
#	18733
#	39699
#	59838
#	82839
#	108011
#	127022
#	142882
#	168258
#	191839
#	211124
#	227282
#	245997
#	264034
#	285037
#	300995
#	318938
#
# Disc length: 4516 seconds
#
# Revision: 0
# Processed by: cddbd v1.5.1PL0 Copyright (c) Steve Scherf et al.
# Submitted via: CDex 1.51
#
DISCID=db11a211
DTITLE=Variado - Bachateando con los Grandes
DYEAR=2004
DGENRE=Salsa
TTITLE0=Escuchame
TTITLE1=Chica de mi barrio
TTITLE2=Quien eres tú
TTITLE3=Te amo
TTITLE4=Cuando se pierde un amor
TTITLE5=No es bueno
TTITLE6=Entre el cielo y el infierno
TTITLE7=Si no te tengo
TTITLE8=Simplemente te amo
TTITLE9=No te puedo perdonar
TTITLE10=Dame algo de tí
TTITLE11=Corazón de dinero
TTITLE12=Rompí las cadenas
TTITLE13=Hermanita
TTITLE14=Si tu te vas
TTITLE15=Bachata, mujeres y cerveza
TTITLE16=Mentira
EXTD=YEAR: 2004
EXTT0=
EXTT1=
EXTT2=
EXTT3=
EXTT4=
EXTT5=
EXTT6=
EXTT7=
EXTT8=
EXTT9=
EXTT10=
EXTT11=
EXTT12=
EXTT13=
EXTT14=
EXTT15=
EXTT16=
PLAYORDER=
